<svg fill="#000000" xmlns="http://www.w3.org/2000/svg"  viewBox="0 0 24 24" width="24px" height="24px"><path d="M 12 2 C 6.4666667 2 2 6.4666667 2 12 C 2 17.533333 6.4666667 22 12 22 C 17.533333 22 22 17.533333 22 12 C 22 6.4666667 17.533333 2 12 2 z M 12 4 C 16.466667 4 20 7.5333333 20 12 C 20 16.466667 16.466667 20 12 20 C 11.20714 20 10.446065 19.883899 9.7265625 19.675781 C 9.9713168 19.208893 10.19354 18.729747 10.300781 18.300781 C 10.400781 17.900781 10.900391 16.099609 10.900391 16.099609 C 11.300391 16.699609 12.099609 17.199219 13.099609 17.199219 C 15.999609 17.199219 18 14.600391 18 11.400391 C 18 8.3003906 15.499219 6 12.199219 6 C 8.1992188 6 6 8.6992188 6 11.699219 C 6 13.099219 6.7003906 14.800781 7.9003906 15.300781 C 8.1003906 15.400781 8.1992188 15.399219 8.1992188 15.199219 C 8.2992188 14.999219 8.4 14.399609 8.5 14.099609 L 8.5 13.800781 C 8.1 13.400781 7.8007812 12.499219 7.8007812 11.699219 C 7.8007813 9.5992187 9.3 7.5996094 12 7.5996094 C 14.3 7.5996094 15.900391 9.2003906 15.900391 11.400391 C 15.900391 13.900391 14.600391 15.699219 12.900391 15.699219 C 12.000391 15.699219 11.3 14.9 11.5 14 C 11.8 12.9 12.300781 11.700391 12.300781 10.900391 C 12.300781 10.200391 11.899609 9.5996094 11.099609 9.5996094 C 10.199609 9.5996094 9.4003906 10.600391 9.4003906 11.900391 C 9.4003906 12.700391 9.6992188 13.300781 9.6992188 13.300781 C 9.6992187 13.300781 8.7996094 17.3 8.5996094 18 C 8.5123787 18.348923 8.4901711 18.774738 8.4921875 19.201172 C 5.8196726 17.915839 4 15.20113 4 12 C 4 7.5333333 7.5333333 4 12 4 z"/></svg>